<svg width="107" height="105" viewBox="0 0 107 105" fill="none" xmlns="http://www.w3.org/2000/svg">
<path d="M18.9479 0H88.0521C98.5292 0 107 8.52564 107 19.0705V85.9295C107 96.4744 98.5292 105 88.0521 105H18.9479C8.47083 105 0 96.4744 0 85.9295V19.0705C0 8.52564 8.47083 0 18.9479 0Z" fill="#330000"/>
<path d="M51.8505 63H35.2655L31.8771 73.5448C31.788 73.9487 31.4313 74.2179 31.0301 74.173H22.6484C22.158 74.173 22.0242 73.9038 22.158 73.3653L36.5138 31.7692C36.6476 31.3205 36.7813 30.8269 36.9596 30.2884C37.138 29.3461 37.2271 28.3589 37.2271 27.3718C37.1826 27.1474 37.3609 26.923 37.5838 26.8782C37.6284 26.8782 37.673 26.8782 37.7176 26.8782H49.1309C49.4876 26.8782 49.6659 27.0128 49.7105 27.2371L65.9834 73.4551C66.1171 73.9487 65.9834 74.173 65.5376 74.173H56.2196C55.9076 74.2179 55.5955 73.9935 55.5063 73.6794L51.8505 63ZM37.8513 53.891H49.1755C48.908 52.9487 48.5513 51.8269 48.1501 50.6602C47.7488 49.4487 47.3476 48.1474 46.9463 46.8012C46.5005 45.4102 46.0992 44.0641 45.6534 42.673C45.2076 41.282 44.8063 39.9807 44.4496 38.6795C44.093 37.423 43.7809 36.2564 43.4688 35.1795H43.3796C42.9784 37.1089 42.488 39.0384 41.8638 40.9679C41.1951 43.1218 40.5263 45.3653 39.813 47.6089C39.1888 49.8974 38.5201 52.0064 37.8513 53.891Z" fill="#FF9A00"/>
<path d="M75.7026 34.5513C74.2314 34.5961 72.8047 34.0128 71.7347 32.9808C70.7093 31.859 70.1743 30.3782 70.2189 28.8526C70.1743 27.3269 70.7539 25.891 71.8239 24.859C72.8939 23.8269 74.3206 23.2885 75.7918 23.2885C77.5305 23.2885 78.8681 23.8269 79.8489 24.859C80.8297 25.9359 81.3647 27.3718 81.3201 28.8526C81.3647 30.3782 80.8297 31.859 79.7597 32.9808C78.7343 34.0577 77.2185 34.641 75.7026 34.5513ZM70.7093 73.5V38.9487C70.7093 38.5 70.8876 38.3205 71.2889 38.3205H80.1164C80.5176 38.3205 80.696 38.5449 80.696 38.9487V73.5C80.696 73.9936 80.5176 74.2179 80.1164 74.2179H71.3781C70.9322 74.2179 70.7093 73.9487 70.7093 73.5Z" fill="#FF9A00"/>
</svg>
