<svg width="107" height="105" viewBox="0 0 107 105" fill="none" xmlns="http://www.w3.org/2000/svg">
<path d="M18.9479 0H88.0521C98.5292 0 107 8.52564 107 19.0705V85.9295C107 96.4744 98.5292 105 88.0521 105H18.9479C8.47083 105 0 96.4744 0 85.9295V19.0705C0 8.52564 8.47083 0 18.9479 0Z" fill="#FF5C33"/>
<path d="M50.3 73.2597H55.6711V46.7629L50.3 44.9725V73.2597Z" fill="white"/>
<path d="M66.0549 35.066C65.9952 38.6467 64.8613 40.4967 62.4742 40.4967C60.0275 40.4967 57.521 39.1838 54.179 37.5725C49.6436 35.4242 47.4952 34.8274 44.6903 34.8274C40.0952 34.8274 36.5146 38.6467 36.7532 45.2113H40.7517C40.8113 41.0338 42.3032 39.1838 44.6903 39.1838C47.0774 39.1838 49.5839 40.4371 52.6871 41.9887C57.2822 44.0774 59.6693 45.0323 62.3549 45.0323C66.4725 45.0323 70.292 42.8242 69.9936 35.066H66.0549Z" fill="white"/>
<path fill-rule="evenodd" clip-rule="evenodd" d="M17 50.9403C17 30.5903 33.5903 14 53.9403 14C74.35 14 90.8807 30.5903 90.8807 50.9403C90.8807 71.2903 74.2903 87.8807 53.9403 87.8807C33.5903 87.8807 17 71.2903 17 50.9403ZM19.3871 50.9403C19.3871 70.0371 34.9032 85.4936 53.9403 85.4936C72.9775 85.4936 88.4936 69.9775 88.4936 50.9403C88.4936 31.9032 72.9775 16.3871 53.9403 16.3871C34.9032 16.3871 19.3871 31.8436 19.3871 50.9403Z" fill="white"/>
</svg>
